<?xml version="1.0"?>
<!DOCTYPE svg PUBLIC "-//W3C//DTD SVG 1.0//EN" "http://www.w3.org/TR/2001/REC-SVG-20010904/DTD/svg10.dtd">
<svg xmlns="http://www.w3.org/2000/svg" xmlns:xlink="http://www.w3.org/1999/xlink" xmlns:sodipodi="http://sodipodi.sourceforge.net/DTD/sodipodi-0.dtd" xmlns:inkscape="http://www.inkscape.org/namespaces/inkscape" xmlns:realworld="http://www.rw-designer.com/export-svg" width="3255px" height="1402px">
  <defs>
    <linearGradient id="G0" x1="0.522459%" x2="99.8874%" y1="17.8004%" y2="121.459%">
      <stop offset="0%" stop-color="#d9d7e7" />
      <stop offset="12.7947%" stop-color="#eccee7" />
      <stop offset="26.2623%" stop-color="#eecee7" />
      <stop offset="44.1062%" stop-color="#e9daed" />
      <stop offset="63.299%" stop-color="#ead9ee" />
      <stop offset="78.114%" stop-color="#fcdcf3" />
      <stop offset="88.8884%" stop-color="#faddf4" />
      <stop offset="100%" stop-color="#f8ddf5" />
    </linearGradient>
    <linearGradient id="G1" x1="-75.2883%" x2="178.541%" y1="1.73024%" y2="1088.03%">
      <stop offset="0%" stop-color="#d9d7e7" />
      <stop offset="12.7947%" stop-color="#eccee7" />
      <stop offset="26.2623%" stop-color="#eecee7" />
      <stop offset="44.1062%" stop-color="#e9daed" />
      <stop offset="63.299%" stop-color="#ead9ee" />
      <stop offset="78.114%" stop-color="#fcdcf3" />
      <stop offset="88.8884%" stop-color="#faddf4" />
      <stop offset="100%" stop-color="#f8ddf5" />
    </linearGradient>
    <linearGradient id="G2" x1="16.67%" x2="83.33%" y1="16.67%" y2="83.33%">
      <stop offset="0%" stop-color="#e1d4e7" />
      <stop offset="10.7744%" stop-color="#edcee7" />
      <stop offset="28.6198%" stop-color="#eecfe7" />
      <stop offset="47.1382%" stop-color="#ebd5eb" />
      <stop offset="67.0039%" stop-color="#e9daed" />
      <stop offset="80.1343%" stop-color="#ead9ee" />
      <stop offset="90.2357%" stop-color="#fadcf2" />
      <stop offset="100%" stop-color="#f9ddf5" />
    </linearGradient>
  </defs>
  <g inkscape:groupmode="layer" inkscape:label="copy-n-paste logo">
    <path d="M 1 171C 1 129.579 34.5786 95 76 95C 76 95 194.114 95 241 95C 249 95 268 96 268 131C 266 179 276 187 308 189C 312.99 189.312 473.455 189 481 189C 489.421 189 634.006 189.216 638 189C 675 187 691 178 689 131C 687.512 96.0316 707 95 716 95C 740 95 892 95 892 95C 933.421 95 967 129.579 967 171L 967 1275C 967 1316.42 933.421 1350 892 1350L 76 1350C 34.5786 1350 1 1316.42 1 1275C 1 1275 1 171 1 171 z" fill="url(#G0)" fill-rule="evenodd" />
    <rect fill="url(#G1)" height="120" rx="30" ry="30" width="379" x="289" y="50" />
    <ellipse cx="321.5" cy="560.5" fill="#1b1f22" rx="72.5" ry="72.5" />
    <path d="M 278 748C 294.103 734.118 313 743 313 743L 552 938L 150 939L 143 939L 137 938L 130 934C 130 934 126.413 931.649 125 930C 123.422 928.159 120 925 120 925C 120 925 116 920 115 918C 114 916 114 914 114 914C 114 914 113 911.5 113 909C 113 906.5 114 903 114 903C 114 903 116 900.5 117 898C 118 895.5 122 892 122 892L 181 836C 181 836 249 773 278 748 z" fill="#1b1f22" fill-rule="evenodd" />
    <path d="M 629 658C 610 651 575 691 575 691L 331 938L 799 939L 806 939L 812 938L 819 934C 819 934 822.587 931.649 824 930C 825.578 928.159 829 925 829 925C 829 925 833 920 834 918C 835 916 835 914 835 914C 835 914 836 911.5 836 909C 836 906.5 836 902 836 902C 836 902 837 896.5 836 894C 835 891.5 836 871 836 871C 836 871 837 793 837 776C 837 772.5 838.453 762.75 837 758C 835.547 753.25 830.694 749.847 823 746C 815 742 784 729 782 728C 778 726 729 704 729 704C 729 704 664.928 671.237 629 658 z" fill="#1b1f22" fill-rule="evenodd" />
  </g>
  <g inkscape:groupmode="layer" inkscape:label="layer 5">
    <text dominant-baseline="text-before-edge" fill="url(#G2)" font-family="Google Sans" font-size="150" text-anchor="start" x="1192" y="754">Clipboard Upload Simplified</text>
    <text dominant-baseline="text-before-edge" fill="url(#G2)" font-family="Google Sans Medium" font-size="310" text-anchor="start" x="1168" y="316">Copy-n-Paste</text>
  </g>
</svg>
