<?xml version="1.0"?>
<!DOCTYPE svg PUBLIC "-//W3C//DTD SVG 1.0//EN" "http://www.w3.org/TR/2001/REC-SVG-20010904/DTD/svg10.dtd">
<svg xmlns="http://www.w3.org/2000/svg" xmlns:xlink="http://www.w3.org/1999/xlink" xmlns:sodipodi="http://sodipodi.sourceforge.net/DTD/sodipodi-0.dtd" xmlns:inkscape="http://www.inkscape.org/namespaces/inkscape" xmlns:realworld="http://www.rw-designer.com/export-svg" width="3255px" height="1402px">
  <defs>
    <linearGradient id="G0" x1="0.522459%" x2="99.8874%" y1="17.8004%" y2="121.459%">
      <stop offset="0%" stop-color="#d9d7e7" />
      <stop offset="12.7947%" stop-color="#eccee7" />
      <stop offset="26.2623%" stop-color="#eecee7" />
      <stop offset="44.1062%" stop-color="#e9daed" />
      <stop offset="63.299%" stop-color="#ead9ee" />
      <stop offset="78.114%" stop-color="#fcdcf3" />
      <stop offset="88.8884%" stop-color="#faddf4" />
      <stop offset="100%" stop-color="#f8ddf5" />
    </linearGradient>
    <linearGradient id="G1" x1="-75.2883%" x2="178.541%" y1="1.73024%" y2="1088.03%">
      <stop offset="0%" stop-color="#d9d7e7" />
      <stop offset="12.7947%" stop-color="#eccee7" />
      <stop offset="26.2623%" stop-color="#eecee7" />
      <stop offset="44.1062%" stop-color="#e9daed" />
      <stop offset="63.299%" stop-color="#ead9ee" />
      <stop offset="78.114%" stop-color="#fcdcf3" />
      <stop offset="88.8884%" stop-color="#faddf4" />
      <stop offset="100%" stop-color="#f8ddf5" />
    </linearGradient>
    <linearGradient id="G2" x1="16.67%" x2="83.33%" y1="16.67%" y2="83.33%">
      <stop offset="0%" stop-color="#e1d4e7" />
      <stop offset="10.7744%" stop-color="#edcee7" />
      <stop offset="28.6198%" stop-color="#eecfe7" />
      <stop offset="47.1382%" stop-color="#ebd5eb" />
      <stop offset="67.0039%" stop-color="#e9daed" />
      <stop offset="80.1343%" stop-color="#ead9ee" />
      <stop offset="90.2357%" stop-color="#fadcf2" />
      <stop offset="100%" stop-color="#f9ddf5" />
    </linearGradient>
  </defs>
  <g inkscape:groupmode="layer" inkscape:label="copy-n-paste logo">
    <path d="M 1 171C 1 129.579 34.5786 95 76 95C 76 95 194.114 95 241 95C 249 95 268 96 268 131C 266 179 276 187 308 189C 312.99 189.312 473.455 189 481 189C 489.421 189 634.006 189.216 638 189C 675 187 691 178 689 131C 687.512 96.0316 707 95 716 95C 740 95 892 95 892 95C 933.421 95 967 129.579 967 171L 967 1275C 967 1316.42 933.421 1350 892 1350L 76 1350C 34.5786 1350 1 1316.42 1 1275C 1 1275 1 171 1 171 z" fill="url(#G0)" fill-rule="evenodd" />
    <rect fill="url(#G1)" height="120" rx="30" ry="30" width="379" x="289" y="50" />
    <ellipse cx="321.5" cy="560.5" fill="#1b1f22" rx="72.5" ry="72.5" />
    <path d="M 278 748C 294.103 734.118 313 743 313 743L 552 938L 150 939L 143 939L 137 938L 130 934C 130 934 126.413 931.649 125 930C 123.422 928.159 120 925 120 925C 120 925 116 920 115 918C 114 916 114 914 114 914C 114 914 113 911.5 113 909C 113 906.5 114 903 114 903C 114 903 116 900.5 117 898C 118 895.5 122 892 122 892L 181 836C 181 836 249 773 278 748 z" fill="#1b1f22" fill-rule="evenodd" />
    <path d="M 629 658C 610 651 575 691 575 691L 331 938L 799 939L 806 939L 812 938L 819 934C 819 934 822.587 931.649 824 930C 825.578 928.159 829 925 829 925C 829 925 833 920 834 918C 835 916 835 914 835 914C 835 914 836 911.5 836 909C 836 906.5 836 902 836 902C 836 902 837 896.5 836 894C 835 891.5 836 871 836 871C 836 871 837 793 837 776C 837 772.5 838.453 762.75 837 758C 835.547 753.25 830.694 749.847 823 746C 815 742 784 729 782 728C 778 726 729 704 729 704C 729 704 664.928 671.237 629 658 z" fill="#1b1f22" fill-rule="evenodd" />
  </g>
  <g inkscape:groupmode="layer" inkscape:label="layer 5">
    <path d="M 1254.41 901.406C 1244 901.406 1234.55 898.959 1226.05 894.063C 1217.55 889.167 1210.87 882.443 1206.03 873.891C 1201.18 865.339 1198.75 855.813 1198.75 845.313C 1198.75 834.813 1201.18 825.286 1206.03 816.734C 1210.87 808.192 1217.55 801.469 1226.05 796.563C 1234.55 791.667 1244 789.219 1254.41 789.219C 1262.41 789.219 1269.73 790.739 1276.38 793.781C 1283.03 796.833 1288.79 801.162 1293.7 806.766L 1284.55 815.609C 1280.46 810.713 1275.98 807.115 1271.13 804.813C 1266.28 802.511 1260.7 801.359 1254.41 801.359C 1246.61 801.359 1239.45 803.182 1232.95 806.828C 1226.45 810.484 1221.28 815.635 1217.44 822.281C 1213.59 828.937 1211.66 836.615 1211.66 845.313C 1211.66 854.011 1213.59 861.682 1217.44 868.328C 1221.28 874.984 1226.45 880.135 1232.95 883.781C 1239.45 887.437 1246.61 889.266 1254.41 889.266C 1267.41 889.266 1278.46 883.917 1287.55 873.219L 1296.84 882.219C 1291.84 888.115 1285.7 892.786 1278.41 896.234C 1271.11 899.682 1263.11 901.406 1254.41 901.406 z M 1312.45 791.609L 1325.2 791.609L 1325.2 899L 1312.45 899C 1312.45 899 1312.45 791.609 1312.45 791.609 z M 1351.95 808.422C 1349.45 808.422 1347.3 807.521 1345.5 805.719C 1343.7 803.917 1342.8 801.766 1342.8 799.266C 1342.8 796.766 1343.7 794.641 1345.5 792.891C 1347.3 791.141 1349.45 790.266 1351.95 790.266C 1354.45 790.266 1356.61 791.141 1358.41 792.891C 1360.2 794.641 1361.09 796.766 1361.09 799.266C 1361.09 801.766 1360.22 803.917 1358.47 805.719C 1356.72 807.521 1354.54 808.422 1351.95 808.422 z M 1345.66 822.516L 1358.25 822.516L 1358.25 899L 1345.66 899C 1345.66 899 1345.66 822.516 1345.66 822.516 z M 1377.84 822.516L 1390 822.516L 1390 833.922L 1390.59 833.922C 1392.89 830.016 1396.37 826.734 1401.03 824.078C 1405.68 821.432 1410.9 820.109 1416.7 820.109C 1423.5 820.109 1429.71 821.859 1435.31 825.359C 1440.9 828.859 1445.3 833.708 1448.5 839.906C 1451.7 846.114 1453.3 853.068 1453.3 860.766C 1453.3 868.568 1451.7 875.542 1448.5 881.688C 1445.3 887.844 1440.9 892.672 1435.31 896.172C 1429.71 899.662 1423.5 901.406 1416.7 901.406C 1410.9 901.406 1405.68 900.084 1401.03 897.438C 1396.37 894.792 1392.89 891.568 1390.59 887.766L 1390 887.766L 1390.59 898.266L 1390.59 931.406L 1377.84 931.406C 1377.84 931.406 1377.84 822.516 1377.84 822.516 z M 1415.2 889.859C 1419.6 889.859 1423.75 888.662 1427.66 886.266C 1431.56 883.87 1434.68 880.442 1437.03 875.984C 1439.37 871.536 1440.55 866.464 1440.55 860.766C 1440.55 855.068 1439.37 849.989 1437.03 845.531C 1434.68 841.083 1431.56 837.662 1427.66 835.266C 1423.75 832.87 1419.6 831.672 1415.2 831.672C 1410.79 831.672 1406.65 832.87 1402.75 835.266C 1398.85 837.662 1395.75 841.057 1393.45 845.453C 1391.15 849.859 1390 854.964 1390 860.766C 1390 866.568 1391.15 871.667 1393.45 876.063C 1395.75 880.469 1398.85 883.87 1402.75 886.266C 1406.65 888.662 1410.79 889.859 1415.2 889.859 z M 1507.3 901.406C 1501.5 901.406 1496.28 900.084 1491.63 897.438C 1486.98 894.792 1483.5 891.568 1481.2 887.766L 1480.59 887.766L 1480.59 899L 1468.45 899L 1468.45 791.609L 1481.2 791.609L 1481.2 823.266L 1480.59 833.922L 1481.2 833.922C 1483.5 830.016 1486.98 826.734 1491.63 824.078C 1496.28 821.432 1501.5 820.109 1507.3 820.109C 1514.1 820.109 1520.31 821.859 1525.91 825.359C 1531.5 828.859 1535.9 833.708 1539.11 839.906C 1542.31 846.114 1543.91 853.068 1543.91 860.766C 1543.91 868.568 1542.31 875.542 1539.11 881.688C 1535.9 887.844 1531.5 892.672 1525.91 896.172C 1520.31 899.662 1514.1 901.406 1507.3 901.406 z M 1505.8 889.859C 1510.21 889.859 1514.35 888.662 1518.25 886.266C 1522.15 883.87 1525.28 880.442 1527.63 875.984C 1529.98 871.536 1531.16 866.464 1531.16 860.766C 1531.16 855.068 1529.98 849.989 1527.63 845.531C 1525.28 841.083 1522.15 837.662 1518.25 835.266C 1514.35 832.87 1510.21 831.672 1505.8 831.672C 1501.4 831.672 1497.26 832.87 1493.36 835.266C 1489.45 837.662 1486.35 841.057 1484.05 845.453C 1481.75 849.859 1480.59 854.964 1480.59 860.766C 1480.59 866.568 1481.75 871.667 1484.05 876.063C 1486.35 880.469 1489.45 883.87 1493.36 886.266C 1497.26 888.662 1501.4 889.859 1505.8 889.859 z M 1593.7 901.406C 1586.2 901.406 1579.45 899.61 1573.45 896.016C 1567.45 892.412 1562.78 887.511 1559.44 881.313C 1556.09 875.115 1554.41 868.266 1554.41 860.766C 1554.41 853.266 1556.09 846.417 1559.44 840.219C 1562.78 834.021 1567.45 829.12 1573.45 825.516C 1579.45 821.912 1586.2 820.109 1593.7 820.109C 1601.2 820.109 1607.95 821.912 1613.95 825.516C 1619.95 829.12 1624.63 834.021 1627.98 840.219C 1631.32 846.417 1633 853.266 1633 860.766C 1633 868.266 1631.32 875.115 1627.98 881.313C 1624.63 887.511 1619.95 892.412 1613.95 896.016C 1607.95 899.61 1601.2 901.406 1593.7 901.406 z M 1593.7 889.859C 1598.4 889.859 1602.78 888.682 1606.83 886.328C 1610.88 883.984 1614.13 880.609 1616.58 876.203C 1619.03 871.807 1620.25 866.662 1620.25 860.766C 1620.25 854.87 1619.03 849.719 1616.58 845.313C 1614.13 840.917 1610.88 837.542 1606.83 835.188C 1602.78 832.844 1598.4 831.672 1593.7 831.672C 1589 831.672 1584.6 832.844 1580.5 835.188C 1576.4 837.542 1573.12 840.917 1570.67 845.313C 1568.22 849.719 1567 854.87 1567 860.766C 1567 866.662 1568.22 871.807 1570.67 876.203C 1573.12 880.609 1576.4 883.984 1580.5 886.328C 1584.6 888.682 1589 889.859 1593.7 889.859 z M 1671.91 901.406C 1666.31 901.406 1661.31 900.307 1656.91 898.109C 1652.5 895.911 1649.1 892.885 1646.7 889.031C 1644.29 885.187 1643.09 880.818 1643.09 875.922C 1643.09 867.818 1646.15 861.49 1652.25 856.938C 1658.35 852.386 1666.05 850.109 1675.34 850.109C 1679.94 850.109 1684.22 850.609 1688.17 851.609C 1692.12 852.609 1695.15 853.761 1697.25 855.063L 1697.25 850.422C 1697.25 844.714 1695.25 840.136 1691.25 836.688C 1687.25 833.24 1682.19 831.516 1676.09 831.516C 1671.8 831.516 1667.85 832.437 1664.25 834.281C 1660.65 836.135 1657.79 838.714 1655.7 842.016L 1646.09 834.813C 1649.09 830.219 1653.22 826.62 1658.47 824.016C 1663.72 821.412 1669.54 820.109 1675.95 820.109C 1686.35 820.109 1694.52 822.833 1700.48 828.281C 1706.43 833.739 1709.41 841.167 1709.41 850.563L 1709.41 899L 1697.25 899L 1697.25 888.063L 1696.66 888.063C 1694.45 891.761 1691.15 894.912 1686.75 897.516C 1682.35 900.11 1677.41 901.406 1671.91 901.406 z M 1673.09 890.172C 1677.39 890.172 1681.4 889.067 1685.11 886.859C 1688.81 884.661 1691.75 881.714 1693.95 878.016C 1696.15 874.318 1697.25 870.265 1697.25 865.859C 1694.85 864.265 1691.91 862.969 1688.41 861.969C 1684.91 860.969 1681.21 860.469 1677.3 860.469C 1670.3 860.469 1665.02 861.917 1661.48 864.813C 1657.93 867.719 1656.16 871.469 1656.16 876.063C 1656.16 880.261 1657.75 883.662 1660.95 886.266C 1664.15 888.87 1668.19 890.172 1673.09 890.172 z M 1727.45 822.516L 1739.59 822.516L 1739.59 834.813L 1740.2 834.813C 1741.7 830.615 1744.61 827.141 1748.91 824.391C 1753.2 821.641 1757.7 820.266 1762.41 820.266C 1765.91 820.266 1768.91 820.766 1771.41 821.766L 1771.41 835.563C 1768.2 833.969 1764.59 833.172 1760.59 833.172C 1756.89 833.172 1753.5 834.219 1750.41 836.313C 1747.31 838.417 1744.82 841.239 1742.98 844.781C 1741.13 848.333 1740.2 852.162 1740.2 856.266L 1740.2 899L 1727.45 899C 1727.45 899 1727.45 822.516 1727.45 822.516 z M 1815.84 901.406C 1809.05 901.406 1802.88 899.662 1797.33 896.172C 1791.78 892.672 1787.4 887.844 1784.2 881.688C 1781 875.542 1779.41 868.568 1779.41 860.766C 1779.41 853.068 1781 846.114 1784.2 839.906C 1787.4 833.708 1791.78 828.859 1797.33 825.359C 1802.88 821.859 1809.05 820.109 1815.84 820.109C 1821.75 820.109 1827.01 821.432 1831.61 824.078C 1836.2 826.734 1839.69 830.016 1842.09 833.922L 1842.7 833.922L 1842.09 823.266L 1842.09 791.609L 1854.84 791.609L 1854.84 899L 1842.7 899L 1842.7 887.766L 1842.09 887.766C 1839.69 891.568 1836.2 894.792 1831.61 897.438C 1827.01 900.084 1821.75 901.406 1815.84 901.406 z M 1817.34 889.859C 1821.84 889.859 1826.03 888.662 1829.88 886.266C 1833.73 883.87 1836.84 880.469 1839.19 876.063C 1841.53 871.667 1842.7 866.568 1842.7 860.766C 1842.7 854.964 1841.53 849.859 1839.19 845.453C 1836.84 841.057 1833.73 837.662 1829.88 835.266C 1826.03 832.87 1821.84 831.672 1817.34 831.672C 1812.94 831.672 1808.81 832.87 1804.91 835.266C 1801 837.662 1797.87 841.083 1795.53 845.531C 1793.18 849.989 1792 855.068 1792 860.766C 1792 866.464 1793.18 871.536 1795.53 875.984C 1797.87 880.442 1801 883.87 1804.91 886.266C 1808.81 888.662 1812.94 889.859 1817.34 889.859 z M 1948.5 901.406C 1940.8 901.406 1933.95 899.636 1927.95 896.094C 1921.95 892.542 1917.3 887.588 1914 881.234C 1910.7 874.89 1909.05 867.568 1909.05 859.266L 1909.05 791.609L 1921.8 791.609L 1921.8 859.859C 1921.8 868.567 1924.1 875.646 1928.7 881.094C 1933.29 886.542 1939.9 889.266 1948.5 889.266C 1957.1 889.266 1963.73 886.542 1968.38 881.094C 1973.03 875.646 1975.34 868.567 1975.34 859.859L 1975.34 791.609L 1987.95 791.609L 1987.95 859.266C 1987.95 867.568 1986.38 874.917 1983.23 881.313C 1980.07 887.719 1975.53 892.672 1969.58 896.172C 1963.63 899.662 1956.6 901.406 1948.5 901.406 z M 2005.84 822.516L 2018 822.516L 2018 833.922L 2018.59 833.922C 2020.89 830.016 2024.37 826.734 2029.03 824.078C 2033.68 821.432 2038.9 820.109 2044.7 820.109C 2051.5 820.109 2057.71 821.859 2063.31 825.359C 2068.9 828.859 2073.3 833.708 2076.5 839.906C 2079.7 846.114 2081.3 853.068 2081.3 860.766C 2081.3 868.568 2079.7 875.542 2076.5 881.688C 2073.3 887.844 2068.9 892.672 2063.31 896.172C 2057.71 899.662 2051.5 901.406 2044.7 901.406C 2038.9 901.406 2033.68 900.084 2029.03 897.438C 2024.37 894.792 2020.89 891.568 2018.59 887.766L 2018 887.766L 2018.59 898.266L 2018.59 931.406L 2005.84 931.406C 2005.84 931.406 2005.84 822.516 2005.84 822.516 z M 2043.2 889.859C 2047.6 889.859 2051.75 888.662 2055.66 886.266C 2059.56 883.87 2062.68 880.442 2065.03 875.984C 2067.37 871.536 2068.55 866.464 2068.55 860.766C 2068.55 855.068 2067.37 849.989 2065.03 845.531C 2062.68 841.083 2059.56 837.662 2055.66 835.266C 2051.75 832.87 2047.6 831.672 2043.2 831.672C 2038.79 831.672 2034.65 832.87 2030.75 835.266C 2026.85 837.662 2023.75 841.057 2021.45 845.453C 2019.15 849.859 2018 854.964 2018 860.766C 2018 866.568 2019.15 871.667 2021.45 876.063C 2023.75 880.469 2026.85 883.87 2030.75 886.266C 2034.65 888.662 2038.79 889.859 2043.2 889.859 z M 2096.45 791.609L 2109.2 791.609L 2109.2 899L 2096.45 899C 2096.45 899 2096.45 791.609 2096.45 791.609 z M 2163.7 901.406C 2156.2 901.406 2149.45 899.61 2143.45 896.016C 2137.45 892.412 2132.78 887.511 2129.44 881.313C 2126.09 875.115 2124.41 868.266 2124.41 860.766C 2124.41 853.266 2126.09 846.417 2129.44 840.219C 2132.78 834.021 2137.45 829.12 2143.45 825.516C 2149.45 821.912 2156.2 820.109 2163.7 820.109C 2171.2 820.109 2177.95 821.912 2183.95 825.516C 2189.95 829.12 2194.63 834.021 2197.98 840.219C 2201.32 846.417 2203 853.266 2203 860.766C 2203 868.266 2201.32 875.115 2197.98 881.313C 2194.63 887.511 2189.95 892.412 2183.95 896.016C 2177.95 899.61 2171.2 901.406 2163.7 901.406 z M 2163.7 889.859C 2168.4 889.859 2172.78 888.682 2176.83 886.328C 2180.88 883.984 2184.13 880.609 2186.58 876.203C 2189.03 871.807 2190.25 866.662 2190.25 860.766C 2190.25 854.87 2189.03 849.719 2186.58 845.313C 2184.13 840.917 2180.88 837.542 2176.83 835.188C 2172.78 832.844 2168.4 831.672 2163.7 831.672C 2159 831.672 2154.6 832.844 2150.5 835.188C 2146.4 837.542 2143.12 840.917 2140.67 845.313C 2138.22 849.719 2137 854.87 2137 860.766C 2137 866.662 2138.22 871.807 2140.67 876.203C 2143.12 880.609 2146.4 883.984 2150.5 886.328C 2154.6 888.682 2159 889.859 2163.7 889.859 z M 2241.91 901.406C 2236.31 901.406 2231.31 900.307 2226.91 898.109C 2222.5 895.911 2219.1 892.885 2216.7 889.031C 2214.29 885.187 2213.09 880.818 2213.09 875.922C 2213.09 867.818 2216.15 861.49 2222.25 856.938C 2228.35 852.386 2236.05 850.109 2245.34 850.109C 2249.94 850.109 2254.22 850.609 2258.17 851.609C 2262.12 852.609 2265.15 853.761 2267.25 855.063L 2267.25 850.422C 2267.25 844.714 2265.25 840.136 2261.25 836.688C 2257.25 833.24 2252.19 831.516 2246.09 831.516C 2241.8 831.516 2237.85 832.437 2234.25 834.281C 2230.65 836.135 2227.79 838.714 2225.7 842.016L 2216.09 834.813C 2219.09 830.219 2223.22 826.62 2228.47 824.016C 2233.72 821.412 2239.54 820.109 2245.95 820.109C 2256.35 820.109 2264.52 822.833 2270.48 828.281C 2276.43 833.739 2279.41 841.167 2279.41 850.563L 2279.41 899L 2267.25 899L 2267.25 888.063L 2266.66 888.063C 2264.45 891.761 2261.15 894.912 2256.75 897.516C 2252.35 900.11 2247.41 901.406 2241.91 901.406 z M 2243.09 890.172C 2247.39 890.172 2251.4 889.067 2255.11 886.859C 2258.81 884.661 2261.75 881.714 2263.95 878.016C 2266.15 874.318 2267.25 870.265 2267.25 865.859C 2264.85 864.265 2261.91 862.969 2258.41 861.969C 2254.91 860.969 2251.21 860.469 2247.3 860.469C 2240.3 860.469 2235.02 861.917 2231.48 864.813C 2227.93 867.719 2226.16 871.469 2226.16 876.063C 2226.16 880.261 2227.75 883.662 2230.95 886.266C 2234.15 888.87 2238.19 890.172 2243.09 890.172 z M 2329.84 901.406C 2323.05 901.406 2316.88 899.662 2311.33 896.172C 2305.78 892.672 2301.4 887.844 2298.2 881.688C 2295 875.542 2293.41 868.568 2293.41 860.766C 2293.41 853.068 2295 846.114 2298.2 839.906C 2301.4 833.708 2305.78 828.859 2311.33 825.359C 2316.88 821.859 2323.05 820.109 2329.84 820.109C 2335.75 820.109 2341.01 821.432 2345.61 824.078C 2350.2 826.734 2353.69 830.016 2356.09 833.922L 2356.7 833.922L 2356.09 823.266L 2356.09 791.609L 2368.84 791.609L 2368.84 899L 2356.7 899L 2356.7 887.766L 2356.09 887.766C 2353.69 891.568 2350.2 894.792 2345.61 897.438C 2341.01 900.084 2335.75 901.406 2329.84 901.406 z M 2331.34 889.859C 2335.84 889.859 2340.03 888.662 2343.88 886.266C 2347.73 883.87 2350.84 880.469 2353.19 876.063C 2355.53 871.667 2356.7 866.568 2356.7 860.766C 2356.7 854.964 2355.53 849.859 2353.19 845.453C 2350.84 841.057 2347.73 837.662 2343.88 835.266C 2340.03 832.87 2335.84 831.672 2331.34 831.672C 2326.94 831.672 2322.81 832.87 2318.91 835.266C 2315 837.662 2311.87 841.083 2309.53 845.531C 2307.18 849.989 2306 855.068 2306 860.766C 2306 866.464 2307.18 871.536 2309.53 875.984C 2311.87 880.442 2315 883.87 2318.91 886.266C 2322.81 888.662 2326.94 889.859 2331.34 889.859 z M 2455 901.406C 2446.6 901.406 2438.91 898.86 2431.91 893.766C 2424.91 888.662 2420.1 881.511 2417.5 872.313L 2429.66 867.359C 2431.36 873.765 2434.51 879.015 2439.11 883.109C 2443.7 887.213 2449.1 889.266 2455.3 889.266C 2461.5 889.266 2466.75 887.588 2471.05 884.234C 2475.35 880.89 2477.5 876.318 2477.5 870.516C 2477.5 865.516 2475.68 861.391 2472.03 858.141C 2468.37 854.891 2462.39 851.865 2454.09 849.063L 2447.34 846.672C 2439.75 843.964 2433.55 840.412 2428.75 836.016C 2423.95 831.62 2421.55 825.521 2421.55 817.719C 2421.55 812.615 2422.95 807.885 2425.75 803.531C 2428.55 799.187 2432.45 795.713 2437.45 793.109C 2442.45 790.515 2448.05 789.219 2454.25 789.219C 2460.45 789.219 2465.85 790.364 2470.45 792.656C 2475.04 794.958 2478.72 797.761 2481.47 801.063C 2484.22 804.365 2486.15 807.615 2487.25 810.813L 2475.25 815.922C 2474.25 812.214 2471.97 808.859 2468.42 805.859C 2464.87 802.859 2460.2 801.359 2454.41 801.359C 2448.91 801.359 2444.21 802.912 2440.31 806.016C 2436.4 809.12 2434.45 813.021 2434.45 817.719C 2434.45 821.917 2436.11 825.338 2439.41 827.984C 2442.7 830.64 2447.7 833.12 2454.41 835.422L 2461.45 837.813C 2470.54 841.115 2477.65 845.24 2482.75 850.188C 2487.85 855.136 2490.41 861.859 2490.41 870.359C 2490.41 877.265 2488.63 883.068 2485.08 887.766C 2481.53 892.464 2477.06 895.911 2471.66 898.109C 2466.25 900.307 2460.7 901.406 2455 901.406 z M 2513.95 808.422C 2511.45 808.422 2509.3 807.521 2507.5 805.719C 2505.7 803.917 2504.8 801.766 2504.8 799.266C 2504.8 796.766 2505.7 794.641 2507.5 792.891C 2509.3 791.141 2511.45 790.266 2513.95 790.266C 2516.45 790.266 2518.61 791.141 2520.41 792.891C 2522.2 794.641 2523.09 796.766 2523.09 799.266C 2523.09 801.766 2522.22 803.917 2520.47 805.719C 2518.72 807.521 2516.54 808.422 2513.95 808.422 z M 2507.66 822.516L 2520.25 822.516L 2520.25 899L 2507.66 899C 2507.66 899 2507.66 822.516 2507.66 822.516 z M 2540.45 822.516L 2552.59 822.516L 2552.59 833.766L 2553.2 833.766C 2555.4 829.87 2558.7 826.62 2563.11 824.016C 2567.51 821.412 2572.15 820.109 2577.05 820.109C 2582.65 820.109 2587.53 821.458 2591.69 824.156C 2595.84 826.864 2598.8 830.469 2600.59 834.969C 2603.3 830.469 2606.88 826.864 2611.33 824.156C 2615.78 821.458 2620.94 820.109 2626.84 820.109C 2635.64 820.109 2642.27 822.787 2646.73 828.141C 2651.18 833.495 2653.41 840.771 2653.41 849.969L 2653.41 899L 2640.8 899L 2640.8 851.922C 2640.8 844.818 2639.35 839.667 2636.45 836.469C 2633.54 833.271 2629.25 831.672 2623.55 831.672C 2619.75 831.672 2616.29 832.771 2613.2 834.969C 2610.1 837.167 2607.67 840.115 2605.92 843.813C 2604.17 847.511 2603.3 851.511 2603.3 855.813L 2603.3 899L 2590.55 899L 2590.55 852.063C 2590.55 844.865 2589.1 839.667 2586.2 836.469C 2583.29 833.271 2579.04 831.672 2573.45 831.672C 2569.65 831.672 2566.2 832.797 2563.11 835.047C 2560.01 837.297 2557.58 840.297 2555.83 844.047C 2554.08 847.797 2553.2 851.817 2553.2 856.109L 2553.2 899L 2540.45 899C 2540.45 899 2540.45 822.516 2540.45 822.516 z M 2670.84 822.516L 2683 822.516L 2683 833.922L 2683.59 833.922C 2685.89 830.016 2689.37 826.734 2694.03 824.078C 2698.68 821.432 2703.9 820.109 2709.7 820.109C 2716.5 820.109 2722.71 821.859 2728.31 825.359C 2733.9 828.859 2738.3 833.708 2741.5 839.906C 2744.7 846.114 2746.3 853.068 2746.3 860.766C 2746.3 868.568 2744.7 875.542 2741.5 881.688C 2738.3 887.844 2733.9 892.672 2728.31 896.172C 2722.71 899.662 2716.5 901.406 2709.7 901.406C 2703.9 901.406 2698.68 900.084 2694.03 897.438C 2689.37 894.792 2685.89 891.568 2683.59 887.766L 2683 887.766L 2683.59 898.266L 2683.59 931.406L 2670.84 931.406C 2670.84 931.406 2670.84 822.516 2670.84 822.516 z M 2708.2 889.859C 2712.6 889.859 2716.75 888.662 2720.66 886.266C 2724.56 883.87 2727.68 880.442 2730.03 875.984C 2732.37 871.536 2733.55 866.464 2733.55 860.766C 2733.55 855.068 2732.37 849.989 2730.03 845.531C 2727.68 841.083 2724.56 837.662 2720.66 835.266C 2716.75 832.87 2712.6 831.672 2708.2 831.672C 2703.79 831.672 2699.65 832.87 2695.75 835.266C 2691.85 837.662 2688.75 841.057 2686.45 845.453C 2684.15 849.859 2683 854.964 2683 860.766C 2683 866.568 2684.15 871.667 2686.45 876.063C 2688.75 880.469 2691.85 883.87 2695.75 886.266C 2699.65 888.662 2703.79 889.859 2708.2 889.859 z M 2761.45 791.609L 2774.2 791.609L 2774.2 899L 2761.45 899C 2761.45 899 2761.45 791.609 2761.45 791.609 z M 2800.95 808.422C 2798.45 808.422 2796.3 807.521 2794.5 805.719C 2792.7 803.917 2791.8 801.766 2791.8 799.266C 2791.8 796.766 2792.7 794.641 2794.5 792.891C 2796.3 791.141 2798.45 790.266 2800.95 790.266C 2803.45 790.266 2805.61 791.141 2807.41 792.891C 2809.2 794.641 2810.09 796.766 2810.09 799.266C 2810.09 801.766 2809.22 803.917 2807.47 805.719C 2805.72 807.521 2803.54 808.422 2800.95 808.422 z M 2794.66 822.516L 2807.25 822.516L 2807.25 899L 2794.66 899C 2794.66 899 2794.66 822.516 2794.66 822.516 z M 2836.3 834.063L 2822.2 834.063L 2822.2 822.516L 2836.3 822.516L 2836.3 814.266C 2836.3 809.464 2837.4 805.26 2839.61 801.656C 2841.81 798.062 2844.75 795.292 2848.45 793.344C 2852.15 791.396 2856.25 790.422 2860.75 790.422C 2865.05 790.422 2868.8 791.021 2872 792.219L 2872 804.672C 2870.2 803.964 2868.5 803.386 2866.91 802.938C 2865.31 802.49 2863.4 802.266 2861.2 802.266C 2857.9 802.266 2855.06 803.437 2852.66 805.781C 2850.25 808.135 2849.05 811.411 2849.05 815.609L 2849.05 822.516L 2868.7 822.516L 2868.7 834.063L 2849.05 834.063L 2849.05 899L 2836.3 899C 2836.3 899 2836.3 834.063 2836.3 834.063 z M 2891.95 808.422C 2889.45 808.422 2887.3 807.521 2885.5 805.719C 2883.7 803.917 2882.8 801.766 2882.8 799.266C 2882.8 796.766 2883.7 794.641 2885.5 792.891C 2887.3 791.141 2889.45 790.266 2891.95 790.266C 2894.45 790.266 2896.61 791.141 2898.41 792.891C 2900.2 794.641 2901.09 796.766 2901.09 799.266C 2901.09 801.766 2900.22 803.917 2898.47 805.719C 2896.72 807.521 2894.54 808.422 2891.95 808.422 z M 2885.66 822.516L 2898.25 822.516L 2898.25 899L 2885.66 899C 2885.66 899 2885.66 822.516 2885.66 822.516 z M 2952.5 901.406C 2945.2 901.406 2938.65 899.662 2932.86 896.172C 2927.06 892.672 2922.53 887.844 2919.28 881.688C 2916.03 875.542 2914.41 868.62 2914.41 860.922C 2914.41 853.516 2915.93 846.714 2918.98 840.516C 2922.02 834.318 2926.35 829.364 2931.95 825.656C 2937.54 821.958 2944.04 820.109 2951.45 820.109C 2958.95 820.109 2965.45 821.787 2970.95 825.141C 2976.45 828.495 2980.68 833.12 2983.63 839.016C 2986.58 844.912 2988.05 851.662 2988.05 859.266C 2988.05 860.766 2987.89 862.068 2987.59 863.172L 2927.16 863.172C 2927.45 868.964 2928.84 873.859 2931.34 877.859C 2933.84 881.859 2937.03 884.859 2940.88 886.859C 2944.73 888.859 2948.75 889.859 2952.95 889.859C 2962.75 889.859 2970.3 885.261 2975.59 876.063L 2986.41 881.313C 2983.11 887.511 2978.63 892.412 2972.98 896.016C 2967.32 899.61 2960.5 901.406 2952.5 901.406 z M 2974.55 852.672C 2974.35 849.464 2973.45 846.261 2971.86 843.063C 2970.26 839.865 2967.73 837.167 2964.28 834.969C 2960.82 832.771 2956.5 831.672 2951.3 831.672C 2945.3 831.672 2940.23 833.594 2936.08 837.438C 2931.92 841.292 2929.2 846.37 2927.91 852.672C 2927.91 852.672 2974.55 852.672 2974.55 852.672 z M 3034.84 901.406C 3028.05 901.406 3021.88 899.662 3016.33 896.172C 3010.78 892.672 3006.4 887.844 3003.2 881.688C 3000 875.542 2998.41 868.568 2998.41 860.766C 2998.41 853.068 3000 846.114 3003.2 839.906C 3006.4 833.708 3010.78 828.859 3016.33 825.359C 3021.88 821.859 3028.05 820.109 3034.84 820.109C 3040.75 820.109 3046.01 821.432 3050.61 824.078C 3055.2 826.734 3058.69 830.016 3061.09 833.922L 3061.7 833.922L 3061.09 823.266L 3061.09 791.609L 3073.84 791.609L 3073.84 899L 3061.7 899L 3061.7 887.766L 3061.09 887.766C 3058.69 891.568 3055.2 894.792 3050.61 897.438C 3046.01 900.084 3040.75 901.406 3034.84 901.406 z M 3036.34 889.859C 3040.84 889.859 3045.03 888.662 3048.88 886.266C 3052.73 883.87 3055.84 880.469 3058.19 876.063C 3060.53 871.667 3061.7 866.568 3061.7 860.766C 3061.7 854.964 3060.53 849.859 3058.19 845.453C 3055.84 841.057 3052.73 837.662 3048.88 835.266C 3045.03 832.87 3040.84 831.672 3036.34 831.672C 3031.94 831.672 3027.81 832.87 3023.91 835.266C 3020 837.662 3016.87 841.083 3014.53 845.531C 3012.18 849.989 3011 855.068 3011 860.766C 3011 866.464 3012.18 871.536 3014.53 875.984C 3016.87 880.442 3020 883.87 3023.91 886.266C 3027.81 888.662 3031.94 889.859 3036.34 889.859 z" fill="url(#G2)" fill-rule="evenodd" />
    <path d="M 1298.2 619.953C 1276.7 619.953 1257.07 614.896 1239.3 604.781C 1221.53 594.656 1207.57 580.709 1197.45 562.938C 1187.32 545.167 1182.27 525.531 1182.27 504.031C 1182.27 482.541 1187.32 462.906 1197.45 445.125C 1207.57 427.354 1221.53 413.406 1239.3 403.281C 1257.07 393.156 1276.7 388.094 1298.2 388.094C 1314.94 388.094 1330.19 391.193 1343.94 397.391C 1357.68 403.599 1369.81 412.588 1380.34 424.359L 1355.55 448.234C 1347.9 439.14 1339.43 432.37 1330.14 427.922C 1320.84 423.484 1310.19 421.266 1298.2 421.266C 1283.31 421.266 1269.73 424.672 1257.44 431.484C 1245.14 438.307 1235.37 447.969 1228.14 460.469C 1220.91 472.979 1217.3 487.5 1217.3 504.031C 1217.3 520.562 1220.91 535.078 1228.14 547.578C 1235.37 560.088 1245.14 569.755 1257.44 576.578C 1269.73 583.401 1283.31 586.813 1298.2 586.813C 1323 586.813 1344.09 576.48 1361.44 555.813L 1386.55 579.984C 1375.81 592.588 1362.89 602.401 1347.81 609.422C 1332.72 616.443 1316.18 619.953 1298.2 619.953 z M 1493.94 619.953C 1478.02 619.953 1463.76 616.292 1451.16 608.969C 1438.55 601.636 1428.72 591.563 1421.7 578.75C 1414.67 565.938 1411.16 551.677 1411.16 535.969C 1411.16 520.261 1414.67 506 1421.7 493.188C 1428.72 480.375 1438.55 470.297 1451.16 462.953C 1463.76 455.62 1478.02 451.953 1493.94 451.953C 1509.85 451.953 1524.11 455.672 1536.72 463.109C 1549.32 470.557 1559.14 480.688 1566.17 493.5C 1573.19 506.313 1576.7 520.469 1576.7 535.969C 1576.7 551.677 1573.19 565.938 1566.17 578.75C 1559.14 591.563 1549.32 601.636 1536.72 608.969C 1524.11 616.292 1509.85 619.953 1493.94 619.953 z M 1493.94 588.672C 1502.62 588.672 1510.67 586.553 1518.11 582.313C 1525.55 578.073 1531.49 571.974 1535.94 564.016C 1540.38 556.058 1542.59 546.709 1542.59 535.969C 1542.59 525.219 1540.38 515.917 1535.94 508.063C 1531.49 500.209 1525.55 494.162 1518.11 489.922C 1510.67 485.693 1502.62 483.578 1493.94 483.578C 1485.25 483.578 1477.19 485.693 1469.75 489.922C 1462.31 494.162 1456.38 500.209 1451.94 508.063C 1447.49 515.917 1445.27 525.219 1445.27 535.969C 1445.27 546.709 1447.49 556.058 1451.94 564.016C 1456.38 571.974 1462.31 578.073 1469.75 582.313C 1477.19 586.553 1485.25 588.672 1493.94 588.672 z M 1606.59 456.922L 1639.16 456.922L 1639.16 477.688L 1640.7 477.688C 1645.24 470.448 1651.96 464.349 1660.86 459.391C 1669.75 454.433 1679.76 451.953 1690.92 451.953C 1705.18 451.953 1718.1 455.568 1729.67 462.797C 1741.24 470.037 1750.39 480.011 1757.11 492.719C 1763.83 505.427 1767.19 519.844 1767.19 535.969C 1767.19 552.084 1763.83 566.495 1757.11 579.203C 1750.39 591.922 1741.24 601.896 1729.67 609.125C 1718.1 616.344 1705.18 619.953 1690.92 619.953C 1679.76 619.953 1669.75 617.479 1660.86 612.531C 1651.96 607.573 1645.24 601.584 1640.7 594.563L 1639.16 594.563L 1640.7 616.547L 1640.7 681.953L 1606.59 681.953C 1606.59 681.953 1606.59 456.922 1606.59 456.922 z M 1685.95 588.672C 1694.22 588.672 1701.98 586.5 1709.22 582.156C 1716.45 577.812 1722.24 571.609 1726.58 563.547C 1730.91 555.495 1733.08 546.302 1733.08 535.969C 1733.08 525.636 1730.91 516.489 1726.58 508.531C 1722.24 500.573 1716.45 494.422 1709.22 490.078C 1701.98 485.745 1694.22 483.578 1685.95 483.578C 1677.69 483.578 1670.01 485.745 1662.88 490.078C 1655.74 494.422 1650 500.573 1645.67 508.531C 1641.33 516.489 1639.16 525.636 1639.16 535.969C 1639.16 546.302 1641.33 555.495 1645.67 563.547C 1650 571.609 1655.74 577.812 1662.88 582.156C 1670.01 586.5 1677.69 588.672 1685.95 588.672 z M 1846.2 606.328L 1780.48 456.922L 1818.61 456.922L 1863.25 564.484L 1864.48 564.484L 1907.89 456.922L 1945.41 456.922L 1847.75 681.953L 1811.8 681.953C 1811.8 681.953 1846.2 606.328 1846.2 606.328 z M 1967.53 504.344L 2069.52 504.344L 2069.52 533.484L 1967.53 533.484C 1967.53 533.484 1967.53 504.344 1967.53 504.344 z M 2108.84 456.922L 2141.39 456.922L 2141.39 477.688L 2142.94 477.688C 2147.49 470.25 2154.26 464.099 2163.25 459.234C 2172.24 454.38 2181.79 451.953 2191.92 451.953C 2211.14 451.953 2225.76 457.584 2235.78 468.844C 2245.8 480.115 2250.81 495.464 2250.81 514.891L 2250.81 615L 2216.72 615L 2216.72 519.531C 2216.72 507.135 2213.67 498.042 2207.58 492.25C 2201.49 486.469 2193.06 483.578 2182.31 483.578C 2174.66 483.578 2167.85 485.693 2161.86 489.922C 2155.86 494.162 2151.21 499.792 2147.91 506.813C 2144.6 513.844 2142.94 521.391 2142.94 529.453L 2142.94 615L 2108.84 615C 2108.84 615 2108.84 456.922 2108.84 456.922 z M 2288.53 504.344L 2390.52 504.344L 2390.52 533.484L 2288.53 533.484C 2288.53 533.484 2288.53 504.344 2288.53 504.344 z M 2435.42 393.063L 2512.3 393.063C 2525.32 393.063 2537.36 395.953 2548.42 401.734C 2559.47 407.526 2568.26 415.589 2574.77 425.922C 2581.28 436.255 2584.53 447.932 2584.53 460.953C 2584.53 473.963 2581.28 485.636 2574.77 495.969C 2568.26 506.302 2559.47 514.36 2548.42 520.141C 2537.36 525.933 2525.32 528.828 2512.3 528.828L 2470.14 528.828L 2470.14 615L 2435.42 615C 2435.42 615 2435.42 393.063 2435.42 393.063 z M 2512.92 495.969C 2520.57 495.969 2527.19 494.265 2532.77 490.859C 2538.34 487.453 2542.57 483.063 2545.47 477.688C 2548.37 472.313 2549.81 466.734 2549.81 460.953C 2549.81 455.161 2548.37 449.578 2545.47 444.203C 2542.57 438.828 2538.34 434.484 2532.77 431.172C 2527.19 427.87 2520.57 426.219 2512.92 426.219L 2470.14 426.219L 2470.14 495.969C 2470.14 495.969 2512.92 495.969 2512.92 495.969 z M 2663.44 619.953C 2652.08 619.953 2641.95 617.734 2633.06 613.297C 2624.17 608.859 2617.26 602.558 2612.3 594.391C 2607.33 586.235 2604.84 576.989 2604.84 566.656C 2604.84 550.333 2611 537.416 2623.3 527.906C 2635.59 518.396 2651.14 513.641 2669.95 513.641C 2679.25 513.641 2687.62 514.521 2695.06 516.281C 2702.5 518.041 2708.39 519.953 2712.73 522.016L 2712.73 513.953C 2712.73 504.245 2709.12 496.338 2701.89 490.234C 2694.65 484.14 2685.34 481.094 2673.98 481.094C 2665.92 481.094 2658.32 482.849 2651.2 486.359C 2644.06 489.88 2638.32 494.74 2633.98 500.938L 2610.13 482.641C 2617.15 472.933 2626.24 465.391 2637.41 460.016C 2648.57 454.641 2660.95 451.953 2674.59 451.953C 2697.54 451.953 2715.21 457.584 2727.61 468.844C 2740.01 480.115 2746.2 495.98 2746.2 516.438L 2746.2 615L 2712.73 615L 2712.73 596.109L 2711.19 596.109C 2706.64 602.922 2700.23 608.599 2691.97 613.141C 2683.7 617.683 2674.19 619.953 2663.44 619.953 z M 2669.33 591.766C 2677.6 591.766 2685.05 589.802 2691.66 585.875C 2698.26 581.948 2703.43 576.678 2707.16 570.063C 2710.88 563.448 2712.73 556.318 2712.73 548.672C 2707.97 545.984 2702.44 543.812 2696.14 542.156C 2689.84 540.51 2683.27 539.688 2676.45 539.688C 2663.64 539.688 2654.24 542.219 2648.25 547.281C 2642.26 552.344 2639.27 558.906 2639.27 566.969C 2639.27 574.198 2642.06 580.135 2647.64 584.781C 2653.21 589.437 2660.44 591.766 2669.33 591.766 z M 2841.5 619.953C 2823.31 619.953 2808.43 615.979 2796.86 608.031C 2785.29 600.083 2777.13 589.906 2772.38 577.5L 2802.75 564.172C 2806.47 572.443 2811.69 578.745 2818.41 583.078C 2825.13 587.422 2832.82 589.594 2841.5 589.594C 2849.97 589.594 2857.1 588.094 2862.89 585.094C 2868.67 582.104 2871.56 577.609 2871.56 571.609C 2871.56 565.828 2869.09 561.281 2864.13 557.969C 2859.17 554.667 2851.52 551.776 2841.19 549.297L 2822.28 544.641C 2809.68 541.547 2799.24 536.073 2790.97 528.219C 2782.7 520.365 2778.56 510.443 2778.56 498.453C 2778.56 489.151 2781.3 480.984 2786.78 473.953C 2792.26 466.932 2799.65 461.511 2808.95 457.688C 2818.25 453.865 2828.38 451.953 2839.33 451.953C 2854.01 451.953 2866.92 454.896 2878.08 460.781C 2889.24 466.677 2897.3 475.203 2902.27 486.359L 2872.5 499.391C 2866.51 487.193 2855.56 481.094 2839.64 481.094C 2831.99 481.094 2825.59 482.64 2820.42 485.734C 2815.25 488.838 2812.67 492.87 2812.67 497.828C 2812.67 502.588 2814.63 506.463 2818.56 509.453C 2822.49 512.453 2828.27 514.99 2835.92 517.063L 2859.17 522.953C 2874.67 526.87 2886.4 532.808 2894.36 540.766C 2902.32 548.724 2906.3 558.49 2906.3 570.063C 2906.3 579.99 2903.46 588.724 2897.77 596.266C 2892.08 603.808 2884.28 609.641 2874.36 613.766C 2864.44 617.891 2853.49 619.953 2841.5 619.953 z M 3000.63 617.484C 2993.61 617.484 2987 616.349 2980.8 614.078C 2974.59 611.807 2969.52 608.813 2965.59 605.094C 2956.7 596.209 2952.27 584.12 2952.27 568.828L 2952.27 486.984L 2924.69 486.984L 2924.69 456.922L 2952.27 456.922L 2952.27 412.281L 2986.38 412.281L 2986.38 456.922L 3024.81 456.922L 3024.81 486.984L 2986.38 486.984L 2986.38 561.391C 2986.38 569.86 2988.03 575.849 2991.33 579.359C 2994.43 583.494 2999.8 585.563 3007.45 585.563C 3010.96 585.563 3014.06 585.099 3016.75 584.172C 3019.44 583.245 3022.34 581.745 3025.44 579.672L 3025.44 612.844C 3018.62 615.938 3010.35 617.484 3000.63 617.484 z M 3130.06 619.953C 3114.56 619.953 3100.67 616.344 3088.38 609.125C 3076.09 601.896 3066.48 591.922 3059.55 579.203C 3052.62 566.495 3049.16 552.187 3049.16 536.281C 3049.16 521.187 3052.51 507.183 3059.23 494.266C 3065.95 481.349 3075.31 471.068 3087.3 463.422C 3099.28 455.776 3112.91 451.953 3128.2 451.953C 3144.12 451.953 3157.91 455.463 3169.59 462.484C 3181.27 469.515 3190.17 479.125 3196.27 491.313C 3202.36 503.511 3205.41 517.261 3205.41 532.563C 3205.41 535.448 3205.09 539.062 3204.47 543.406L 3083.27 543.406C 3084.51 558.083 3089.72 569.396 3098.92 577.344C 3108.11 585.302 3118.8 589.281 3131 589.281C 3140.71 589.281 3149.13 587.057 3156.27 582.609C 3163.4 578.172 3169.13 572.13 3173.47 564.484L 3202.3 578.125C 3194.86 591.146 3185.15 601.375 3173.17 608.813C 3161.18 616.24 3146.81 619.953 3130.06 619.953 z M 3170.69 517.359C 3170.27 511.786 3168.51 506.26 3165.42 500.781C 3162.32 495.302 3157.61 490.703 3151.31 486.984C 3145 483.265 3137.29 481.406 3128.2 481.406C 3117.25 481.406 3108.01 484.662 3100.47 491.172C 3092.93 497.682 3087.71 506.411 3084.81 517.359C 3084.81 517.359 3170.69 517.359 3170.69 517.359 z" fill="url(#G2)" fill-rule="evenodd" />
  </g>
</svg>
